<?xml version="1.0" standalone="no"?>
<!DOCTYPE svg PUBLIC "-//W3C//DTD SVG 20010904//EN"
 "http://www.w3.org/TR/2001/REC-SVG-20010904/DTD/svg10.dtd">
<svg version="1.0" xmlns="http://www.w3.org/2000/svg"
 width="700.000000pt" height="700.000000pt" viewBox="0 0 700.000000 700.000000"
 preserveAspectRatio="xMidYMid meet">
<metadata>
Created by potrace 1.11, written by Peter Selinger 2001-2013
</metadata>
<g transform="translate(0.000000,700.000000) scale(0.100000,-0.100000)"
fill="#000000" stroke="none">
<path d="M94 6743 c21 -345 92 -598 232 -829 52 -87 65 -103 149 -193 89 -95
293 -240 322 -229 3 2 6 128 6 281 l0 277 86 1 c47 0 174 1 281 2 l194 2 27
65 c15 36 34 88 42 115 l15 50 -322 1 -321 0 -1 121 c0 103 2 122 15 125 9 2
166 3 349 3 l332 -1 1 40 c0 23 2 50 4 61 5 28 13 215 9 215 -2 0 -38 -15 -81
-34 -43 -19 -109 -45 -148 -57 -123 -41 -273 -26 -434 44 -31 13 -39 12 -131
-19 -123 -42 -136 -45 -237 -51 -71 -5 -93 -2 -165 22 -46 15 -114 43 -153 61
-38 19 -72 34 -74 34 -2 0 -1 -48 3 -107z"/>
</g>
</svg>
