<svg xmlns="http://www.w3.org/2000/svg" xmlns:xlink="http://www.w3.org/1999/xlink" viewBox="0 0 2472.97 685.49"><defs><style>.cls-1{fill:none;}.cls-2{font-size:500px;font-family:Avenir-Medium, Avenir;}.cls-2,.cls-4{fill:#fff;}.cls-3{fill:#e5e5e5;}.cls-5{fill:#666;}.cls-6{fill:#7f7f7f;}.cls-7{clip-path:url(#clip-path);}</style><clipPath id="clip-path"><path class="cls-1" d="M508,355.2H295.16V269.4h242Zm61.77-302L429,94.36l-133.85-36V178.45h257.4Z"/></clipPath></defs><title>Asset 51</title><g id="Layer_2" data-name="Layer 2"><g id="Fidelius_website" data-name="Fidelius website"><text class="cls-2" transform="translate(742.5 481)">Fidelius</text><path class="cls-3" d="M0,12S84.09,68.62,154.44,68.62,295.16,29.16,295.16,29.16V612.61C137.28,545.68,0,380.94,0,12Z"/><path class="cls-4" d="M590.32,12S506.23,68.62,435.87,68.62,295.16,29.16,295.16,29.16V612.61C453,545.68,590.32,380.94,590.32,12Z"/><path class="cls-5" d="M32.6,66.91s51.49,36,121.84,36S295.16,63.48,295.16,63.48V578.29C157.88,519.94,32.6,334.61,32.6,66.91Z"/><path class="cls-6" d="M154.44,102.94c80.66-3.43,140.72-39.46,140.72-39.46V578.29C205.92,519.94,154.44,233.36,154.44,102.94Z"/><g class="cls-7"><path class="cls-5" d="M557.71,66.91s-51.48,36-121.84,36S295.16,63.48,295.16,63.48V578.29C432.44,519.94,557.71,334.61,557.71,66.91Z"/></g><polygon class="cls-4" points="295.16 355.2 295.16 578.29 381.39 563.68 488.14 448.51 500.75 355.2 295.16 355.2"/><rect class="cls-4" x="295.16" y="178.45" width="257.22" height="90.95"/></g></g></svg>