<svg xmlns="http://www.w3.org/2000/svg" viewBox="0 0 491.43 500"><defs><style>.cls-4{fill:#0f2872}</style><clipPath id="clip-path"><path d="M422.86 285.71H245.71v-71.42h201.43zm51.43-251.42L357.14 68.57l-111.43-30v100H460z" fill="none"/></clipPath></defs><g id="Layer_2" data-name="Layer 2"><g id="Fidelius"><path d="M0 0s70 47.14 128.57 47.14 117.14-32.85 117.14-32.85V500C114.29 444.29 0 307.14 0 0z" fill="#4e67b3"/><path d="M491.43 0s-70 47.14-128.57 47.14-117.15-32.85-117.15-32.85V500C377.14 444.29 491.43 307.14 491.43 0z" fill="#778dcd"/><path class="cls-4" d="M27.14 45.71s42.86 30 101.43 30 117.14-32.85 117.14-32.85v428.57C131.43 422.86 27.14 268.57 27.14 45.71z"/><path d="M128.57 75.71c67.14-2.85 117.14-32.85 117.14-32.85v428.57c-74.28-48.57-117.14-287.14-117.14-395.72z" fill="#193791"/><g clip-path="url(#clip-path)"><path class="cls-4" d="M464.29 45.71s-42.86 30-101.43 30-117.15-32.85-117.15-32.85v428.57C360 422.86 464.29 268.57 464.29 45.71z"/></g></g></g></svg>